<mxfile host="app.diagrams.net" modified="2024-06-13T11:41:05.139Z" agent="Mozilla/5.0 (Windows NT 10.0; Win64; x64) AppleWebKit/537.36 (KHTML, like Gecko) Chrome/125.0.0.0 Safari/537.36" version="24.5.4" etag="5Tochb4ViyfvQckvTtJw" type="github">
  <diagram name="第 1 页" id="JSmST4b3VovZjhYM6iD3">
    <mxGraphModel>
      <root>
        <mxCell id="0" />
        <mxCell id="1" parent="0" />
      </root>
    </mxGraphModel>
  </diagram>
</mxfile>
